<?xml version="1.0" standalone="no"?>
<!DOCTYPE svg PUBLIC "-//W3C//DTD SVG 20010904//EN"
 "http://www.w3.org/TR/2001/REC-SVG-20010904/DTD/svg10.dtd">
<svg version="1.0" xmlns="http://www.w3.org/2000/svg"
 width="300.000000pt" height="300.000000pt" viewBox="0 0 300.000000 300.000000"
 preserveAspectRatio="xMidYMid meet">
<metadata>
Created by potrace 1.10, written by Peter Selinger 2001-2011
</metadata>
<g transform="translate(0.000000,300.000000) scale(0.100000,-0.100000)"
fill="#000000" stroke="none">
<path d="M1730 2984 c-107 -7 -294 -20 -415 -29 -121 -8 -346 -24 -500 -35
-154 -11 -387 -27 -517 -37 l-238 -17 0 -36 c0 -19 5 -89 10 -155 5 -66 14
-190 20 -275 10 -153 25 -361 55 -775 8 -115 24 -345 35 -510 11 -165 27 -386
35 -490 8 -105 15 -212 15 -239 l0 -48 48 6 c26 3 84 8 129 12 l83 6 0 -181
c0 -174 1 -181 20 -181 19 0 20 7 20 178 0 176 0 179 -24 201 -23 22 -29 22
-124 16 -59 -5 -102 -4 -105 2 -3 5 -20 203 -36 439 -17 236 -38 524 -46 639
-8 116 -20 278 -25 360 -6 83 -13 175 -15 205 -3 30 -10 125 -15 210 -6 85
-12 182 -15 215 -17 209 -24 350 -18 356 8 7 119 16 953 74 577 40 750 53 801
61 l36 6 8 -78 c6 -65 11 -82 34 -104 26 -25 34 -27 481 -74 250 -27 458 -50
463 -53 12 -7 8 -77 -13 -263 -10 -96 -35 -323 -55 -505 -155 -1456 -176
-1640 -190 -1651 -8 -6 -35 -8 -72 -3 -32 4 -85 8 -119 8 -87 1 -94 -9 -94
-137 0 -95 1 -102 20 -102 19 0 20 7 20 105 0 104 0 105 23 101 47 -10 258
-28 264 -23 5 6 18 106 47 382 20 185 51 476 71 655 8 74 24 223 35 330 11
107 27 254 35 325 24 218 44 400 66 609 23 219 24 216 -39 216 -18 0 -90 7
-160 15 -70 8 -215 24 -322 35 -226 23 -360 38 -411 46 l-37 5 -7 100 c-4 54
-10 98 -14 98 -3 -1 -94 -7 -201 -15z"/>
<path d="M1615 2843 c-22 -2 -204 -15 -405 -29 -201 -13 -486 -34 -635 -44
-148 -11 -280 -20 -293 -20 -13 0 -36 -13 -52 -28 -24 -24 -27 -35 -24 -73 4
-52 15 -202 49 -694 14 -198 32 -454 40 -570 8 -115 24 -345 35 -510 12 -165
23 -310 26 -323 13 -63 102 -85 149 -37 l25 24 0 960 c0 528 3 966 6 975 6 14
70 16 628 16 l623 0 23 25 c22 24 23 28 16 152 -9 165 -16 178 -107 179 -35 1
-82 -1 -104 -3z m169 -145 c4 -62 9 -125 12 -140 l6 -28 -656 0 -656 0 0
-1000 0 -1000 -49 0 -48 0 -7 122 c-4 68 -13 211 -21 318 -8 107 -24 328 -35
490 -11 162 -27 387 -35 500 -8 113 -21 304 -30 425 -8 121 -17 243 -20 271
l-5 51 118 7 c64 4 203 13 307 21 105 8 329 24 500 35 171 12 353 25 405 29
52 5 120 9 151 10 l56 1 7 -112z"/>
<path d="M1951 2641 c-30 -30 -29 -94 4 -126 24 -25 27 -25 195 -25 128 0 172
-3 175 -12 2 -7 6 -480 8 -1051 l4 -1038 25 -26 c21 -21 35 -25 93 -26 107 -3
98 -33 155 513 11 107 34 317 50 465 16 149 39 358 50 465 29 278 59 551 71
653 10 88 6 111 -24 135 -8 7 -142 25 -298 42 -156 16 -301 32 -322 35 -150
19 -164 18 -186 -4z m136 -31 c46 -6 144 -17 220 -25 296 -30 438 -46 441 -50
4 -3 -5 -83 -43 -430 -8 -71 -24 -218 -35 -325 -11 -107 -27 -253 -35 -325 -8
-71 -24 -218 -35 -325 -11 -107 -27 -253 -35 -325 -8 -71 -22 -199 -31 -284
l-17 -153 -45 6 c-25 3 -55 6 -68 6 l-24 0 0 1075 0 1075 -205 0 -205 0 0 23
c0 12 -3 32 -6 45 -7 26 1 27 123 12z"/>
<path d="M651 2376 l-22 -23 -6 -669 c-3 -368 -2 -857 2 -1087 7 -380 9 -420
25 -440 l18 -22 767 0 767 0 19 24 c18 23 19 55 19 1111 l0 1089 -26 20 c-26
21 -33 21 -784 21 l-757 0 -22 -24z m1549 -1108 l0 -1093 -765 2 -765 3 0
1085 c0 597 0 1087 0 1090 0 3 344 5 765 5 l765 0 0 -1092z"/>
<path d="M1045 2060 c-115 -44 -179 -140 -179 -265 0 -57 5 -82 27 -128 54
-109 154 -162 297 -155 93 4 158 29 205 78 l25 26 -61 54 c-53 46 -63 51 -71
37 -24 -44 -119 -62 -175 -34 -81 42 -83 201 -2 242 56 30 138 14 176 -33 10
-12 21 -6 72 39 l61 53 -22 23 c-12 13 -49 37 -82 53 -51 26 -70 30 -140 29
-55 0 -97 -6 -131 -19z m245 -43 c62 -25 73 -46 36 -71 -24 -15 -27 -15 -58 4
-42 26 -128 27 -169 3 -45 -27 -81 -86 -87 -143 -13 -141 135 -241 254 -171
34 20 38 21 60 6 35 -23 30 -42 -18 -66 -92 -47 -243 -32 -320 31 -141 117
-94 360 82 415 69 21 156 18 220 -8z"/>
<path d="M1433 2023 c13 -27 66 -150 118 -276 l94 -227 94 2 94 3 42 100 c83
197 178 420 182 433 4 9 -17 12 -85 12 l-90 0 -61 -145 c-33 -79 -61 -149 -61
-154 0 -5 -4 -12 -8 -15 -5 -3 -38 67 -73 154 l-64 160 -103 0 -102 0 23 -47z
m154 -5 c6 -7 32 -66 58 -130 53 -130 85 -174 116 -157 23 12 37 39 95 177 25
59 50 110 57 114 22 14 77 9 77 -7 0 -29 -181 -443 -197 -449 -27 -11 -110 -6
-121 7 -17 21 -191 441 -186 449 8 13 91 9 101 -4z"/>
<path d="M860 1175 l0 -85 575 0 575 0 0 85 0 85 -575 0 -575 0 0 -85z m1103
24 c5 -9 7 -28 3 -42 l-6 -27 -524 0 c-564 0 -536 -3 -536 49 0 41 3 41 539
39 458 -3 515 -5 524 -19z"/>
<path d="M860 860 l0 -90 575 0 575 0 0 90 0 90 -575 0 -575 0 0 -90z m1094
34 c22 -21 20 -61 -3 -74 -30 -15 -1023 -14 -1039 2 -15 15 -15 43 -2 69 10
18 27 19 520 19 449 0 510 -2 524 -16z"/>
<path d="M860 548 l0 -88 575 0 575 0 0 88 0 87 -575 0 -575 0 0 -87z m1106
15 c16 -60 37 -58 -531 -58 -568 0 -547 -2 -531 58 l6 27 525 0 525 0 6 -27z"/>
</g>
</svg>
