<?xml version="1.0" standalone="no"?>
<!DOCTYPE svg PUBLIC "-//W3C//DTD SVG 20010904//EN"
 "http://www.w3.org/TR/2001/REC-SVG-20010904/DTD/svg10.dtd">
<svg id="cv" version="1.0" xmlns="http://www.w3.org/2000/svg"
 width="900.000000pt" height="900.000000pt" viewBox="0 0 900.000000 900.000000"
 preserveAspectRatio="xMidYMid meet">
<metadata>
Created by potrace 1.10, written by Peter Selinger 2001-2011
</metadata>
<g transform="translate(0.000000,900.000000) scale(0.100000,-0.100000)" fill="red" stroke="none">
<path d="M5593 8988 c3 -17 -45 -25 -163 -27 -58 -1 -136 -6 -175 -11 -38 -5
-140 -12 -225 -15 -85 -4 -177 -11 -204 -16 -28 -5 -149 -14 -270 -19 -122 -5
-237 -14 -256 -20 -19 -5 -82 -10 -140 -10 -58 0 -148 -5 -200 -11 -52 -6
-162 -14 -245 -19 -287 -17 -471 -30 -575 -41 -58 -5 -195 -14 -305 -19 -110
-4 -220 -13 -245 -19 -25 -6 -92 -11 -150 -11 -58 0 -136 -5 -173 -10 -38 -6
-156 -14 -262 -19 -107 -5 -199 -12 -205 -16 -6 -4 -111 -11 -234 -15 -122 -5
-235 -14 -250 -20 -15 -5 -75 -10 -134 -10 -59 0 -174 -7 -257 -15 -82 -8
-190 -15 -238 -15 -49 0 -107 -5 -130 -10 -23 -6 -118 -14 -212 -18 l-170 -7
-3 -115 c-1 -63 2 -151 8 -195 6 -44 15 -170 20 -280 4 -110 13 -220 19 -245
6 -25 11 -91 11 -147 0 -56 4 -135 10 -175 5 -40 14 -160 19 -265 5 -106 13
-197 16 -203 4 -6 11 -111 16 -234 5 -123 13 -236 19 -251 5 -14 10 -74 10
-133 0 -59 7 -172 15 -252 8 -80 15 -191 15 -247 0 -56 4 -113 10 -127 5 -14
14 -126 20 -248 5 -123 14 -239 20 -258 5 -19 10 -89 10 -155 0 -66 5 -158 11
-205 6 -47 14 -150 19 -230 16 -290 31 -498 45 -640 8 -80 17 -217 19 -305 3
-88 10 -176 16 -195 5 -19 10 -80 10 -135 0 -55 7 -163 15 -240 8 -77 15 -183
15 -235 0 -52 5 -113 10 -135 5 -22 14 -142 20 -267 5 -125 15 -239 20 -253 6
-15 10 -77 10 -138 0 -62 7 -175 15 -252 8 -77 15 -179 15 -227 0 -48 4 -109
10 -135 5 -26 14 -137 19 -246 5 -109 12 -201 15 -205 9 -9 127 -3 167 8 19 6
74 10 124 10 49 0 170 7 267 16 97 9 184 14 192 11 14 -6 16 -66 16 -537 l0
-530 2835 0 2835 0 0 304 c0 188 4 307 10 311 5 3 18 1 29 -5 11 -5 86 -15
166 -20 81 -5 151 -13 157 -16 5 -4 62 -10 126 -15 65 -5 140 -13 167 -18 28
-6 86 -11 129 -13 62 -2 81 1 86 12 13 25 30 134 30 191 0 30 5 74 11 99 6 25
15 101 19 170 5 69 14 159 19 200 13 95 30 258 41 380 5 52 14 122 19 155 6
33 11 91 11 128 0 38 5 77 10 88 6 11 15 81 20 157 5 75 13 166 19 202 13 80
31 254 40 380 4 52 10 101 15 108 4 7 12 72 16 145 5 73 14 166 19 207 14 99
30 251 41 375 5 55 14 127 19 160 6 33 11 87 11 120 0 33 7 92 15 130 8 39 15
97 15 130 0 33 6 105 14 160 16 103 32 250 46 415 5 52 13 115 19 140 6 25 10
81 11 124 0 44 7 118 15 165 14 82 25 185 45 406 5 55 14 123 19 150 5 28 10
84 10 125 1 41 6 91 11 110 6 19 15 100 21 179 5 79 14 151 19 161 6 11 10 47
10 82 0 35 7 104 15 153 8 50 15 122 15 162 0 39 5 84 11 100 6 15 13 69 15
118 3 50 11 137 19 195 16 118 34 281 45 415 5 50 13 114 19 144 6 29 11 90
11 135 1 44 7 108 15 141 8 33 15 95 15 137 l0 77 -37 11 c-21 5 -102 15 -181
20 -78 6 -154 15 -168 20 -14 6 -51 10 -82 10 -31 0 -102 7 -157 15 -55 8
-128 15 -162 15 -34 0 -74 5 -89 10 -15 6 -70 13 -123 16 -53 2 -139 11 -191
19 -96 14 -258 31 -426 45 -50 4 -96 10 -103 14 -6 4 -71 11 -144 16 -73 4
-166 13 -207 19 -106 15 -257 31 -381 40 -59 5 -112 11 -117 15 -6 4 -66 11
-134 16 -68 5 -154 15 -193 22 l-70 13 -7 134 c-4 74 -12 148 -18 164 -5 16
-10 92 -10 168 l0 139 -110 0 c-80 0 -109 -3 -107 -12z m-269 -584 c3 -9 6
-64 6 -122 0 -59 5 -150 11 -202 6 -52 14 -169 19 -260 4 -91 11 -174 14 -185
16 -53 146 -50 -1961 -55 l-1948 -5 -3 -2981 c-2 -2490 -4 -2983 -16 -2993 -7
-6 -68 -14 -134 -18 l-121 -6 -11 27 c-5 15 -12 97 -16 184 -3 86 -10 179 -15
206 -5 27 -14 147 -19 266 -5 120 -14 230 -20 244 -5 15 -10 82 -10 149 0 67
-7 185 -15 262 -8 77 -15 181 -15 232 0 50 -4 103 -10 117 -5 14 -12 103 -15
198 -4 95 -13 219 -21 276 -8 56 -14 158 -15 225 0 67 -4 154 -10 192 -5 39
-13 144 -19 235 -5 91 -14 210 -19 265 -6 55 -11 141 -11 190 0 50 -5 108 -10
130 -5 22 -14 144 -20 272 -5 127 -14 243 -20 258 -5 14 -10 74 -10 133 0 59
-5 150 -11 202 -6 52 -14 163 -19 245 -14 244 -29 462 -41 580 -6 61 -14 196
-19 300 -4 105 -13 217 -19 249 -6 33 -11 108 -11 166 0 58 -4 131 -10 161 -5
30 -14 142 -20 249 -5 107 -14 214 -19 238 -7 34 -5 47 8 63 15 18 33 22 176
29 194 11 430 27 585 41 63 5 204 14 314 19 109 5 205 12 215 15 9 4 84 11
166 15 284 16 500 30 645 45 80 8 215 17 300 19 85 3 171 10 190 16 19 5 78
10 130 10 52 0 167 7 255 15 88 8 198 15 245 15 47 0 103 5 125 10 22 5 140
14 263 20 123 5 231 14 240 19 9 4 105 11 212 15 107 4 218 11 245 15 28 5
102 9 166 10 98 1 118 -2 123 -15z m790 -573 c15 -6 55 -11 89 -11 34 0 103
-7 152 -15 50 -8 120 -15 157 -15 37 0 79 -5 95 -11 15 -6 69 -13 118 -15 50
-2 140 -11 200 -19 122 -16 279 -33 427 -45 53 -4 102 -11 108 -15 5 -3 68
-10 138 -15 70 -4 161 -13 202 -19 96 -13 253 -31 355 -39 l80 -7 -3 -90 c-1
-49 -7 -105 -12 -125 -5 -19 -10 -64 -10 -100 0 -36 -5 -81 -10 -100 -6 -19
-15 -93 -20 -165 -4 -71 -13 -164 -19 -205 -13 -90 -29 -239 -41 -375 -5 -55
-14 -129 -19 -165 -6 -36 -11 -93 -11 -127 0 -34 -5 -74 -10 -89 -6 -14 -15
-89 -20 -165 -5 -76 -13 -155 -19 -176 -5 -21 -12 -83 -15 -138 -4 -55 -11
-118 -16 -140 -5 -22 -10 -72 -10 -112 0 -39 -5 -84 -11 -100 -6 -15 -14 -86
-19 -158 -5 -71 -13 -161 -19 -200 -11 -72 -26 -218 -41 -385 -5 -52 -14 -122
-19 -155 -6 -33 -11 -92 -11 -132 0 -39 -5 -84 -11 -100 -5 -15 -14 -88 -19
-163 -6 -74 -14 -151 -20 -170 -5 -19 -10 -60 -10 -90 0 -30 -7 -98 -15 -150
-8 -52 -15 -123 -15 -157 0 -34 -5 -74 -11 -89 -5 -16 -12 -73 -15 -129 -2
-55 -11 -143 -19 -195 -14 -95 -29 -240 -45 -422 -4 -53 -11 -102 -15 -108 -3
-5 -10 -68 -15 -138 -4 -70 -13 -161 -19 -202 -11 -80 -27 -226 -41 -380 -4
-52 -13 -122 -19 -154 -6 -33 -11 -90 -11 -126 0 -37 -5 -80 -10 -97 -6 -16
-14 -74 -18 -129 l-7 -99 -74 -3 c-41 -2 -87 2 -101 8 -15 6 -74 14 -131 18
l-104 7 -5 3220 -5 3220 -600 3 c-395 1 -603 6 -610 12 -10 11 -33 230 -26
251 4 14 181 6 225 -10z m476 -787 c16 -40 13 -6497 -2 -6512 -17 -17 -4569
-17 -4586 0 -17 17 -17 6509 0 6526 9 9 533 12 2295 12 l2283 0 10 -26z"/>
<path d="M3385 6230 c-60 -3 -116 -9 -122 -13 -7 -4 -39 -15 -70 -23 -54 -14
-129 -44 -163 -65 -8 -5 -26 -14 -40 -20 -14 -6 -35 -20 -47 -31 -12 -12 -37
-30 -56 -42 -44 -27 -135 -128 -180 -199 -81 -127 -127 -292 -127 -462 0 -96
19 -226 38 -262 7 -12 12 -29 12 -38 0 -24 60 -144 98 -195 39 -53 152 -170
164 -170 4 0 25 -15 45 -33 21 -18 58 -41 83 -52 25 -10 52 -24 60 -31 8 -6
26 -14 40 -17 14 -3 39 -9 55 -15 129 -43 136 -44 335 -44 157 0 204 3 234 16
21 9 51 16 65 16 15 0 36 7 47 15 10 8 27 15 37 15 18 0 94 39 171 88 46 29
130 105 157 143 18 26 18 26 -9 56 -15 16 -58 56 -97 88 -38 32 -94 81 -123
109 -30 28 -64 58 -78 66 -22 14 -26 12 -66 -26 -63 -60 -124 -104 -142 -104
-9 0 -28 -8 -42 -17 -38 -25 -239 -25 -277 0 -14 9 -32 17 -40 17 -7 0 -41 25
-75 55 -57 52 -77 84 -113 175 -18 47 -18 243 0 290 22 58 45 104 59 118 6 8
17 22 22 33 12 21 72 62 135 93 55 26 259 28 296 3 13 -10 30 -17 37 -17 16 0
115 -75 151 -114 14 -14 31 -26 39 -26 7 0 37 22 65 48 29 27 103 95 165 151
l112 103 -19 26 c-41 56 -179 172 -206 172 -6 0 -16 5 -22 11 -18 18 -164 79
-188 79 -12 0 -35 6 -51 14 -34 16 -203 24 -369 16z"/>
<path d="M4249 6193 c-3 -20 4 -49 17 -67 8 -11 14 -30 14 -42 0 -12 7 -27 15
-34 8 -7 15 -19 15 -26 0 -8 14 -43 30 -77 17 -35 30 -69 30 -75 0 -6 7 -23
15 -39 26 -51 75 -163 75 -172 0 -5 6 -22 14 -38 7 -15 20 -44 28 -63 8 -19
22 -52 31 -72 9 -21 24 -55 33 -75 9 -21 23 -51 30 -66 8 -16 14 -33 14 -38 0
-5 13 -37 29 -72 16 -34 37 -82 46 -107 10 -25 31 -73 47 -108 15 -34 28 -66
28 -71 0 -5 6 -22 14 -38 13 -26 25 -55 61 -138 40 -93 48 -112 61 -137 8 -14
14 -33 14 -41 0 -9 7 -23 16 -31 13 -14 53 -16 284 -16 l268 0 16 25 c9 13 16
33 16 43 0 10 4 22 9 28 5 5 19 34 31 64 12 30 28 70 36 88 8 17 20 47 28 65
7 17 20 48 29 67 15 35 30 71 61 143 9 20 22 52 30 70 8 17 24 57 36 87 12 30
26 59 31 65 5 5 9 18 9 30 0 12 4 25 9 31 5 5 26 50 46 99 20 50 43 105 51
123 8 17 21 48 29 67 8 19 21 51 30 70 8 19 22 51 30 70 9 19 22 51 30 70 8
19 21 50 29 68 8 17 24 57 36 87 12 30 26 59 31 65 5 5 9 18 9 30 0 11 7 29
15 39 8 11 15 28 15 38 0 17 -14 18 -266 16 l-265 -3 -18 -35 c-17 -33 -27
-56 -65 -145 -9 -20 -22 -50 -29 -68 -8 -17 -23 -52 -32 -77 -10 -25 -31 -73
-47 -108 -15 -34 -28 -66 -28 -71 0 -5 -6 -22 -14 -38 -8 -15 -36 -80 -61
-143 -74 -184 -105 -250 -116 -250 -7 0 -23 33 -66 130 -9 19 -22 47 -30 62
-7 14 -13 33 -13 41 0 9 -6 28 -14 44 -16 32 -37 80 -60 138 -9 22 -23 53 -31
68 -8 16 -15 35 -15 44 0 8 -6 27 -14 41 -8 15 -28 63 -46 107 -17 44 -38 94
-45 110 -7 17 -24 57 -37 90 l-25 60 -292 3 c-160 1 -292 -1 -292 -5z"/>
<path d="M2577 3763 c-4 -3 -7 -116 -7 -249 0 -230 1 -244 19 -254 13 -7 565
-10 1714 -10 1425 0 1696 2 1706 14 8 9 11 86 9 257 l-3 244 -1716 3 c-943 1
-1719 -1 -1722 -5z"/>
<path d="M2590 2830 c-12 -8 -16 -47 -18 -232 -2 -123 0 -238 3 -256 l6 -32
1717 2 1717 3 3 249 c2 175 -1 253 -9 262 -10 12 -281 14 -1708 14 -1050 0
-1702 -4 -1711 -10z"/>
<path d="M2604 1891 c-10 -2 -22 -8 -26 -15 -4 -6 -8 -117 -8 -247 0 -187 3
-239 14 -248 10 -8 467 -10 1722 -9 l1709 3 0 255 0 255 -1696 5 c-932 3
-1704 3 -1715 1z"/>
</g>
</svg>
