<?xml version="1.0" standalone="no"?>
<!DOCTYPE svg PUBLIC "-//W3C//DTD SVG 20010904//EN"
 "http://www.w3.org/TR/2001/REC-SVG-20010904/DTD/svg10.dtd">
<svg version="1.0" xmlns="http://www.w3.org/2000/svg"
 width="1536.000000pt" height="1536.000000pt" viewBox="0 0 1536.000000 1536.000000"
 preserveAspectRatio="xMidYMid meet">
<metadata>
Created by potrace 1.10, written by Peter Selinger 2001-2011
</metadata>
<g transform="translate(0.000000,1536.000000) scale(0.100000,-0.100000)" fill="red" stroke="none">
<path d="M8650 15346 c0 -24 -31 -29 -220 -31 -102 -1 -253 -7 -335 -14 -243
-18 -427 -30 -645 -42 -113 -6 -214 -14 -225 -19 -11 -5 -97 -11 -190 -14 -94
-3 -183 -10 -199 -15 -15 -6 -98 -11 -184 -11 -87 0 -173 -5 -192 -10 -19 -6
-127 -15 -240 -20 -113 -6 -239 -14 -280 -20 -41 -5 -122 -9 -180 -10 -58 0
-159 -7 -225 -15 -66 -8 -151 -15 -190 -15 -38 0 -144 -6 -235 -14 -91 -8
-268 -22 -395 -31 -126 -9 -284 -20 -350 -25 -66 -6 -205 -15 -310 -20 -104
-6 -200 -15 -213 -20 -13 -6 -95 -10 -183 -10 -93 0 -169 -4 -180 -10 -11 -6
-115 -15 -232 -21 -116 -5 -246 -14 -287 -19 -41 -5 -118 -9 -170 -9 -52 -1
-153 -8 -225 -16 -71 -8 -164 -15 -205 -15 -41 0 -149 -6 -240 -15 -91 -8
-268 -22 -395 -30 -126 -9 -282 -20 -345 -25 -63 -5 -207 -14 -320 -20 -113
-6 -213 -15 -222 -20 -10 -6 -73 -10 -141 -10 -68 0 -173 -7 -233 -16 -60 -8
-128 -12 -151 -9 -23 3 -51 1 -62 -4 -17 -9 -18 -16 -11 -42 5 -18 12 -64 15
-103 6 -92 33 -455 45 -621 6 -71 15 -215 20 -320 6 -104 15 -200 20 -213 6
-13 10 -89 10 -170 0 -81 5 -165 10 -187 6 -22 15 -130 20 -240 5 -110 14
-234 19 -275 6 -41 11 -120 11 -175 1 -55 5 -136 10 -180 6 -44 14 -159 19
-255 5 -96 14 -224 20 -285 6 -60 18 -216 26 -345 9 -129 20 -287 26 -350 5
-63 14 -203 20 -310 5 -107 14 -208 20 -224 5 -16 9 -83 9 -150 1 -67 5 -152
11 -191 6 -38 14 -144 19 -235 4 -91 12 -230 19 -310 24 -295 34 -439 41 -595
4 -88 13 -212 19 -275 6 -63 18 -221 26 -350 9 -129 21 -284 26 -345 5 -60 14
-198 19 -305 6 -107 14 -211 20 -230 5 -19 11 -116 14 -214 3 -101 10 -184 16
-190 6 -6 10 -75 10 -171 0 -88 4 -176 10 -195 5 -19 14 -129 20 -245 5 -115
14 -239 20 -275 5 -36 10 -110 10 -165 0 -55 6 -172 15 -260 17 -188 33 -392
45 -600 5 -82 14 -206 20 -275 13 -152 27 -356 40 -590 5 -96 14 -188 20 -204
5 -16 10 -95 10 -175 0 -80 5 -162 10 -181 6 -19 13 -106 17 -194 l6 -158 41
6 c23 3 70 10 106 16 36 5 94 10 130 10 62 0 135 5 620 46 113 10 219 18 235
18 l30 1 0 -813 0 -812 4249 0 4249 0 -6 48 c-11 83 -10 873 0 883 7 7 53 3
134 -10 68 -12 144 -21 169 -21 25 0 80 -7 123 -15 43 -8 111 -15 150 -15 40
-1 108 -7 152 -15 44 -8 109 -15 145 -15 36 -1 85 -5 110 -11 25 -6 100 -14
168 -18 68 -5 129 -14 135 -20 28 -28 37 -12 37 68 0 44 5 92 11 108 6 15 13
71 15 123 3 52 9 111 15 130 5 19 14 91 19 160 6 69 14 159 20 200 5 41 16
145 25 230 9 85 23 201 31 257 8 56 14 126 14 155 0 29 7 89 15 133 8 44 14
110 15 147 0 36 7 102 15 145 8 43 15 112 15 154 0 42 7 98 15 125 9 29 15 89
15 147 0 54 4 106 10 116 5 10 14 72 20 137 16 186 48 476 76 690 8 61 14 131
14 155 0 24 7 82 15 129 8 47 15 115 15 152 0 36 7 102 15 145 8 43 15 110 15
148 0 39 7 101 15 140 8 38 15 107 15 153 0 46 4 91 10 101 5 10 12 63 15 117
3 55 10 117 15 139 6 22 14 94 20 160 5 66 14 154 19 195 5 41 17 145 26 230
8 85 20 187 26 225 6 39 15 120 19 180 7 107 17 204 41 390 6 50 15 140 19
200 5 61 13 133 19 160 5 28 10 85 10 127 1 42 5 87 11 100 5 13 14 77 20 143
5 66 14 158 20 205 5 47 17 148 25 225 8 77 20 176 26 220 6 44 14 132 19 195
5 63 13 139 19 169 6 29 11 83 11 120 0 36 7 97 15 136 8 38 15 111 15 161 0
56 6 108 15 134 9 25 15 78 15 131 0 48 4 98 10 111 5 13 14 77 20 143 5 66
14 154 19 195 5 41 16 147 26 235 9 88 23 206 31 262 8 56 14 126 14 155 0 29
7 88 15 131 8 43 15 106 15 140 0 34 7 103 15 152 8 50 15 119 15 155 0 36 7
92 15 125 8 33 14 99 15 147 0 48 4 97 10 110 5 13 14 75 20 138 20 239 57
564 70 633 17 83 15 87 -31 87 -38 0 -178 15 -379 41 -47 6 -130 15 -185 19
-55 5 -142 13 -192 19 -236 28 -286 33 -399 40 -66 5 -130 14 -142 20 -11 6
-64 11 -116 11 -52 0 -105 4 -118 10 -13 5 -75 14 -138 19 -191 17 -321 31
-396 41 -39 6 -113 15 -165 19 -108 10 -259 27 -374 42 -44 6 -138 15 -208 20
-71 5 -133 11 -138 15 -6 3 -71 10 -144 14 -74 5 -143 13 -154 19 -11 6 -63
11 -116 11 -53 0 -105 5 -115 10 -11 6 -74 14 -142 19 -141 11 -292 26 -393
41 -38 5 -122 15 -185 20 -63 6 -140 14 -170 18 l-55 7 -11 85 c-7 47 -13 146
-14 220 0 74 -5 155 -10 180 -5 25 -12 113 -15 195 -3 83 -8 169 -11 193 -5
39 -8 42 -35 42 -18 0 -29 -5 -29 -14z m-77 -118 c20 -15 37 -104 37 -198 0
-36 4 -101 9 -145 6 -44 12 -136 16 -204 9 -195 26 -246 108 -316 47 -41 80
-51 203 -64 49 -6 211 -24 359 -41 243 -27 705 -76 795 -84 105 -9 290 -28
400 -41 69 -8 190 -22 270 -30 80 -9 199 -23 265 -31 139 -16 399 -44 740 -79
132 -13 301 -31 375 -39 74 -8 205 -22 290 -31 159 -17 343 -37 510 -56 114
-14 140 -31 140 -92 0 -42 -32 -355 -51 -492 -6 -44 -17 -141 -24 -215 -26
-264 -96 -937 -111 -1060 -8 -69 -21 -186 -29 -260 -8 -74 -21 -196 -30 -270
-21 -184 -53 -485 -65 -600 -5 -52 -16 -162 -25 -245 -8 -82 -24 -235 -35
-340 -11 -104 -22 -217 -25 -250 -3 -33 -10 -89 -15 -125 -11 -71 -56 -478
-70 -630 -5 -52 -14 -126 -19 -165 -6 -38 -18 -144 -26 -235 -9 -91 -22 -226
-30 -300 -9 -74 -19 -182 -25 -240 -14 -163 -30 -309 -41 -380 -21 -142 -149
-1340 -164 -1530 -2 -30 -9 -95 -15 -145 -23 -198 -41 -363 -45 -410 -2 -27
-8 -88 -14 -135 -28 -218 -98 -853 -121 -1095 -5 -49 -16 -153 -24 -230 -9
-77 -18 -171 -21 -210 -2 -38 -9 -104 -14 -145 -6 -41 -15 -129 -21 -195 -6
-66 -13 -127 -15 -135 -6 -21 -39 -304 -75 -660 -25 -240 -25 -242 -56 -271
l-25 -23 -182 17 c-100 9 -315 31 -477 48 -162 17 -338 33 -390 36 l-95 5 -46
-36 c-26 -19 -58 -52 -70 -73 -24 -38 -24 -42 -29 -400 -5 -361 -5 -363 -28
-385 l-23 -23 -4074 0 -4074 0 -23 23 -23 23 -3 687 c-1 428 -6 701 -13 724
-14 53 -103 143 -149 151 -20 4 -132 0 -250 -8 -773 -56 -714 -55 -738 -15
-14 22 -21 69 -31 192 -22 296 -51 710 -61 868 -5 85 -12 169 -15 185 -3 17
-8 77 -10 135 -3 58 -7 130 -10 160 -11 113 -60 783 -75 1015 -6 88 -17 264
-25 390 -8 127 -22 325 -31 440 -8 116 -17 246 -19 290 -2 44 -9 145 -15 225
-5 80 -13 179 -15 220 -3 41 -10 127 -15 190 -6 63 -17 212 -25 330 -8 118
-19 271 -25 340 -14 167 -29 383 -40 560 -5 80 -16 251 -25 380 -8 129 -20
309 -25 400 -6 91 -14 215 -19 275 -6 61 -15 187 -21 280 -6 94 -17 247 -25
340 -8 94 -17 215 -20 270 -3 55 -12 183 -20 285 -8 102 -19 250 -25 330 -5
80 -14 206 -20 280 -6 74 -17 239 -25 365 -8 127 -19 295 -25 375 -6 80 -17
253 -25 385 -8 132 -17 267 -20 300 -10 126 -36 476 -45 615 -5 80 -14 195
-19 255 -5 61 -13 164 -16 230 -10 175 -25 164 256 187 123 9 267 20 319 23
52 3 217 15 365 26 149 11 335 24 415 29 80 5 161 12 180 15 36 5 225 19 505
35 88 5 219 14 290 19 72 6 236 18 365 26 129 9 332 22 450 30 118 8 379 26
580 40 201 14 385 27 410 30 25 3 113 10 195 15 83 6 240 17 350 25 110 8 236
17 280 20 44 3 136 10 205 15 69 6 204 15 300 20 96 5 197 12 224 15 26 3 119
10 205 15 232 14 647 43 1146 80 72 5 202 15 290 21 88 6 176 13 195 15 19 1
73 6 120 9 123 9 467 51 521 64 3 0 13 -5 22 -11z"/>
<path d="M7670 14609 c-284 -19 -588 -40 -795 -54 -323 -23 -473 -33 -730 -50
-126 -8 -282 -20 -345 -25 -63 -6 -182 -15 -265 -21 -181 -12 -374 -26 -555
-39 -207 -16 -687 -50 -860 -60 -85 -6 -254 -17 -375 -25 -121 -8 -294 -19
-385 -24 -91 -6 -187 -13 -215 -16 -27 -4 -113 -11 -190 -16 -330 -21 -766
-52 -950 -68 -60 -6 -216 -17 -345 -26 -495 -34 -535 -39 -577 -68 -51 -36
-94 -91 -104 -136 -9 -36 2 -291 21 -511 10 -116 28 -372 36 -510 3 -41 14
-201 25 -355 11 -154 24 -338 29 -410 20 -297 30 -447 40 -565 14 -158 47
-628 65 -915 27 -423 35 -540 40 -576 3 -20 7 -81 10 -135 7 -139 22 -354 70
-1009 14 -187 30 -398 35 -470 17 -225 39 -541 55 -780 24 -369 44 -670 55
-815 5 -74 14 -207 20 -295 5 -88 14 -205 20 -260 5 -55 12 -147 15 -205 7
-119 36 -520 65 -907 18 -236 36 -487 59 -853 9 -140 19 -168 82 -231 67 -67
89 -72 258 -59 80 6 165 18 187 26 53 19 111 75 137 133 l21 46 4 4374 4 4374
24 24 23 23 2808 0 c1815 0 2820 3 2842 10 38 11 105 70 127 112 25 47 18 272
-26 833 -5 72 -12 182 -16 245 -7 145 -14 167 -72 225 -78 79 -95 82 -372 64z
m316 -116 c10 -13 13 -62 14 -183 0 -91 5 -192 10 -225 6 -33 15 -154 20 -270
5 -115 14 -239 19 -275 5 -36 11 -116 13 -178 l3 -113 -2928 -2 -2927 -2 -3
-4495 -2 -4495 -160 -6 c-88 -3 -179 -11 -202 -18 -31 -8 -48 -9 -63 -1 -18
10 -20 21 -20 143 0 73 -7 186 -15 252 -8 66 -15 167 -15 225 0 58 -7 159 -15
225 -8 66 -15 147 -15 180 0 33 -6 139 -14 235 -24 275 -45 582 -52 735 -4 77
-10 145 -14 150 -4 6 -10 89 -13 186 -4 97 -11 188 -17 203 -5 15 -10 93 -10
174 0 81 -4 163 -10 182 -5 19 -15 129 -20 245 -6 115 -15 244 -20 285 -5 41
-9 122 -10 180 0 58 -7 159 -15 225 -8 66 -15 152 -15 190 0 39 -6 144 -15
235 -19 212 -33 410 -45 635 -6 99 -14 203 -20 230 -5 28 -12 128 -15 224 -4
96 -11 183 -16 192 -5 10 -9 90 -9 179 0 94 -4 170 -11 181 -5 11 -14 111 -20
222 -5 111 -13 238 -18 282 -6 44 -10 125 -11 180 0 55 -7 156 -15 225 -8 69
-15 159 -15 200 0 41 -6 152 -15 245 -8 94 -22 269 -30 390 -9 121 -20 276
-26 345 -5 69 -14 208 -19 310 -6 102 -14 201 -20 220 -5 19 -11 112 -14 205
-3 94 -10 188 -15 210 -6 22 -11 103 -11 180 0 77 -5 159 -10 182 -8 35 -25
275 -33 468 l-2 40 140 7 c77 3 178 11 225 17 46 6 118 11 160 11 41 0 149 6
240 15 91 8 273 22 405 31 132 9 287 20 345 25 58 5 193 14 300 19 107 6 208
15 224 20 16 6 88 10 160 10 72 0 172 7 221 15 50 8 151 15 225 15 74 0 151 4
170 10 19 5 132 14 250 20 118 6 247 15 285 20 39 5 115 10 170 10 55 0 156 7
225 15 69 8 154 15 190 15 36 0 142 6 235 15 265 22 435 35 635 45 102 5 208
14 235 20 28 5 120 11 205 14 86 3 168 10 183 15 16 6 97 11 180 11 84 0 168
5 187 10 20 5 132 14 250 20 118 5 247 14 285 20 39 5 122 10 185 10 63 1 156
7 205 14 133 19 166 19 181 -1z"/>
<path d="M8845 13744 c-83 -43 -125 -109 -127 -200 -2 -94 11 -219 28 -268 14
-40 79 -116 119 -139 15 -9 238 -13 838 -17 l819 -5 19 -24 c18 -23 19 -55 18
-1165 -1 -3609 10 -8283 20 -8317 13 -43 69 -110 115 -138 34 -21 108 -36 256
-51 47 -5 129 -14 184 -20 126 -15 168 -7 218 38 69 62 91 116 103 241 6 67
15 149 25 226 5 39 14 113 19 165 6 52 19 176 31 275 38 336 76 697 105 995
20 205 42 412 55 510 5 41 17 143 25 225 9 83 22 202 30 265 7 63 18 162 25
220 6 58 21 206 35 330 13 124 31 304 40 400 9 96 27 267 40 380 13 113 31
270 40 350 9 80 22 201 30 270 8 69 21 186 29 260 16 143 45 419 71 685 9 88
22 225 31 305 8 80 19 188 25 240 5 52 16 145 24 205 8 61 21 175 30 255 9 80
22 201 30 270 8 69 19 172 25 230 6 58 15 143 21 190 5 47 25 245 44 440 34
341 43 430 65 605 6 44 17 141 25 215 43 388 56 511 61 575 2 39 9 95 14 125
5 30 14 118 21 195 11 135 11 142 -9 181 -23 44 -91 110 -131 125 -27 11 -124
22 -691 79 -490 50 -1267 135 -1560 171 -41 5 -140 15 -220 24 -80 8 -237 24
-350 35 -113 11 -285 30 -382 40 -213 24 -244 24 -283 4z m199 -120 c43 -8
110 -14 150 -14 39 -1 91 -5 116 -10 25 -5 104 -14 177 -20 72 -5 143 -14 158
-20 14 -5 71 -10 126 -10 55 0 110 -5 121 -11 11 -6 73 -15 137 -20 64 -4 157
-13 206 -18 243 -28 367 -42 493 -56 75 -8 173 -20 217 -26 44 -6 132 -14 195
-19 63 -5 139 -13 169 -19 29 -6 83 -11 120 -11 36 -1 102 -7 146 -15 44 -8
114 -15 155 -15 41 0 97 -7 124 -15 28 -8 88 -15 137 -15 48 0 98 -5 111 -10
13 -6 79 -13 148 -18 120 -7 125 -8 128 -30 2 -13 -4 -44 -12 -69 -9 -27 -16
-80 -16 -127 0 -45 -5 -97 -12 -116 -6 -19 -15 -84 -19 -145 -8 -115 -22 -248
-40 -375 -5 -41 -14 -120 -19 -175 -12 -138 -28 -281 -45 -401 -8 -56 -15
-126 -15 -155 0 -30 -7 -90 -15 -134 -8 -44 -14 -110 -15 -147 0 -36 -7 -102
-15 -145 -8 -43 -15 -112 -15 -154 0 -42 -7 -98 -15 -125 -8 -28 -15 -88 -15
-141 0 -51 -4 -102 -10 -115 -5 -13 -14 -77 -20 -143 -5 -66 -14 -160 -19
-210 -6 -49 -18 -153 -26 -230 -9 -77 -23 -192 -31 -255 -8 -63 -14 -133 -14
-155 0 -22 -7 -78 -15 -125 -8 -47 -15 -114 -16 -150 0 -36 -4 -87 -10 -115
-5 -27 -13 -107 -18 -176 -5 -69 -14 -136 -20 -147 -6 -11 -11 -68 -11 -126 0
-57 -5 -117 -11 -133 -6 -15 -15 -77 -19 -138 -5 -60 -14 -150 -19 -200 -6
-49 -18 -157 -26 -240 -9 -82 -23 -196 -31 -252 -8 -56 -14 -121 -14 -145 0
-24 -7 -79 -15 -123 -8 -44 -15 -111 -15 -150 -1 -38 -5 -90 -10 -115 -6 -25
-14 -109 -20 -187 -6 -79 -15 -154 -20 -168 -6 -15 -10 -66 -10 -115 0 -49 -5
-101 -11 -117 -6 -15 -15 -77 -20 -138 -16 -199 -29 -329 -39 -390 -6 -33 -15
-107 -20 -165 -14 -162 -30 -296 -46 -402 -7 -53 -14 -125 -14 -160 0 -35 -5
-81 -10 -103 -5 -22 -14 -104 -20 -181 -5 -78 -14 -154 -20 -168 -5 -15 -10
-66 -10 -114 -1 -48 -7 -114 -15 -147 -8 -33 -15 -100 -15 -148 0 -49 -4 -97
-10 -107 -5 -10 -14 -69 -19 -131 -13 -155 -29 -303 -47 -431 -7 -59 -14 -128
-14 -155 0 -26 -5 -68 -11 -93 -6 -25 -14 -97 -17 -160 l-7 -115 -35 1 c-19 1
-71 6 -115 12 -192 27 -335 42 -401 42 -57 0 -73 3 -78 16 -5 13 -7 9471 -2
9629 l1 40 -920 1 -920 0 -7 120 c-4 65 -12 152 -18 192 -5 41 -7 78 -4 84 7
12 99 4 218 -18z"/>
<path d="M2999 12560 c-47 -25 -107 -94 -120 -140 -15 -54 -8 -9726 8 -9761
19 -42 73 -98 117 -122 l41 -22 3385 0 c1862 0 3402 4 3424 8 53 11 130 85
152 145 16 44 17 307 21 4052 2 2203 0 4388 -4 4855 l-8 850 -23 37 c-13 21
-44 55 -69 75 l-46 38 -3421 2 c-3362 2 -3422 2 -3457 -17z m6898 -103 c2 -2
3 -2212 3 -4911 l0 -4906 -3455 -3 c-3065 -2 -3455 0 -3455 13 0 1587 0 9790
0 9800 0 13 389 15 3452 13 1898 -2 3453 -4 3455 -6z"/>
<path d="M5175 11219 c-22 -4 -79 -8 -127 -8 -51 -1 -101 -7 -120 -15 -34 -14
-92 -30 -166 -46 -23 -5 -103 -39 -176 -75 -191 -92 -331 -206 -469 -381 -26
-33 -47 -64 -47 -68 0 -4 -11 -22 -24 -39 -27 -37 -81 -150 -92 -193 -4 -16
-13 -38 -20 -49 -8 -11 -14 -32 -14 -48 0 -16 -5 -38 -11 -50 -7 -11 -18 -84
-26 -161 -11 -112 -11 -170 -2 -281 6 -77 15 -153 21 -170 6 -16 14 -48 18
-70 12 -58 70 -206 101 -255 5 -8 13 -25 19 -38 30 -70 183 -245 280 -322 36
-28 80 -63 98 -78 19 -15 50 -35 70 -46 21 -10 44 -23 52 -27 8 -5 22 -12 30
-15 8 -3 42 -19 75 -34 33 -16 87 -36 120 -45 33 -8 83 -22 110 -30 85 -24
280 -45 423 -45 134 0 250 15 357 45 28 8 61 16 75 19 82 15 261 100 376 177
76 52 264 229 264 249 0 6 -12 21 -26 33 -28 21 -146 124 -294 256 -47 41
-109 99 -139 128 -29 29 -59 53 -65 53 -6 0 -33 -25 -59 -56 -61 -73 -211
-184 -249 -184 -5 0 -24 -6 -41 -14 -64 -29 -224 -38 -337 -19 -87 14 -196 73
-270 145 -96 94 -152 215 -170 373 -16 138 8 302 58 392 7 12 12 27 12 33 0
11 80 121 110 150 23 22 100 72 140 91 68 31 126 42 244 46 120 4 200 -10 251
-44 11 -7 28 -13 37 -13 27 0 168 -111 224 -175 26 -30 50 -55 53 -55 3 0 54
46 112 103 59 56 142 132 185 169 44 37 102 88 129 113 28 26 60 51 73 56 12
5 22 17 22 28 0 32 -198 219 -295 278 -16 10 -125 65 -245 123 -8 4 -51 17
-95 30 -44 12 -93 27 -110 32 -32 11 -304 37 -370 36 -22 0 -58 -4 -80 -9z
m281 -130 c112 -11 164 -23 294 -66 168 -57 381 -187 415 -254 21 -39 11 -55
-81 -135 -37 -33 -95 -85 -131 -116 -35 -31 -73 -60 -84 -63 -21 -7 -27 -4
-161 87 -98 66 -164 94 -266 114 -201 38 -392 0 -546 -110 -115 -82 -188 -179
-244 -324 -43 -109 -52 -162 -52 -297 0 -211 65 -387 194 -523 89 -93 179
-153 286 -189 76 -25 99 -28 215 -28 109 0 142 4 205 24 88 28 161 67 249 133
72 54 102 65 135 50 29 -13 273 -237 287 -264 14 -26 -5 -54 -81 -117 -110
-92 -310 -183 -497 -226 -118 -27 -305 -38 -448 -26 -71 6 -150 16 -175 22
-115 27 -139 33 -190 49 -88 28 -207 86 -276 135 -36 25 -68 45 -71 45 -3 0
-46 37 -95 82 -156 142 -267 342 -318 573 -25 112 -28 388 -5 506 37 194 119
362 249 511 105 120 207 198 350 268 258 127 522 171 842 139z"/>
<path d="M6350 11153 c0 -12 4 -24 9 -28 6 -3 19 -24 29 -48 54 -116 72 -157
92 -207 28 -70 48 -118 66 -153 8 -16 14 -33 14 -38 0 -5 16 -42 35 -83 19
-41 35 -78 35 -81 0 -7 44 -107 65 -148 8 -16 15 -35 15 -44 0 -8 6 -27 13
-41 8 -15 21 -43 29 -62 18 -43 47 -106 82 -181 14 -31 26 -62 26 -68 0 -7 6
-25 13 -39 17 -34 39 -84 62 -142 10 -25 31 -73 47 -108 15 -34 28 -64 28 -67
0 -3 13 -33 29 -67 15 -35 49 -115 75 -178 26 -63 53 -128 61 -145 7 -16 30
-70 50 -120 20 -49 41 -94 46 -99 5 -6 9 -16 9 -23 0 -11 13 -42 75 -178 7
-16 16 -42 19 -56 3 -15 14 -35 23 -45 17 -18 38 -19 428 -16 l410 2 18 43 c9
23 17 47 17 54 0 6 6 24 14 40 13 25 22 46 54 123 28 66 55 128 68 157 8 17
14 38 14 46 0 8 7 20 15 27 8 7 15 18 15 25 0 8 6 26 14 42 8 15 36 80 61 143
26 63 53 129 60 145 7 17 17 41 23 55 6 14 20 48 32 75 12 28 29 66 37 85 9
19 22 48 29 63 8 16 14 37 14 47 0 9 7 23 15 30 8 7 15 20 15 29 0 9 7 25 15
35 8 11 15 29 15 41 0 11 6 29 13 40 7 11 28 56 46 100 18 44 39 94 46 110 36
83 44 103 61 140 9 22 23 52 31 67 7 14 13 33 13 41 0 8 10 34 23 58 12 24 33
71 46 104 13 33 36 87 51 120 15 33 36 80 45 105 29 74 74 179 86 200 32 55
48 90 42 91 -5 1 -192 1 -417 1 l-409 0 -20 -48 c-10 -27 -29 -71 -42 -99 -12
-27 -26 -61 -30 -75 -7 -25 -17 -49 -69 -161 -14 -31 -26 -61 -26 -67 0 -6 -6
-23 -14 -39 -7 -15 -21 -45 -30 -65 -9 -21 -22 -53 -30 -70 -39 -89 -46 -107
-46 -120 0 -8 -4 -18 -9 -23 -5 -6 -19 -35 -31 -65 -12 -30 -29 -71 -38 -90
-8 -19 -21 -50 -29 -67 -22 -55 -39 -96 -57 -136 -9 -21 -16 -42 -16 -47 0 -5
-13 -37 -29 -72 -16 -35 -37 -88 -46 -118 -22 -74 -29 -84 -53 -88 -17 -3 -21
4 -27 40 -4 23 -11 49 -15 58 -5 8 -22 51 -40 95 -18 44 -38 95 -46 113 -8 18
-14 39 -14 46 0 8 -7 19 -15 26 -8 7 -15 20 -15 30 0 10 -13 48 -30 85 -16 37
-30 75 -30 85 0 10 -7 23 -15 30 -8 7 -15 18 -15 25 0 7 -13 43 -30 80 -16 37
-30 73 -30 80 0 7 -7 18 -15 25 -8 7 -15 20 -15 30 0 17 -46 134 -76 193 -8
16 -14 35 -14 42 0 7 -6 26 -14 42 -18 36 -38 84 -66 153 -12 30 -26 59 -31
64 -5 6 -9 22 -9 37 0 15 -8 37 -18 49 -17 21 -18 21 -465 23 l-447 2 0 -22z
m808 -129 c28 -19 57 -77 116 -229 41 -103 170 -417 210 -510 8 -16 20 -48 29
-70 65 -171 154 -381 184 -431 37 -65 116 -134 153 -134 75 0 154 120 275 418
35 86 98 238 140 337 42 99 80 191 85 205 4 14 29 72 55 130 25 58 60 138 77
178 17 39 42 83 56 97 l25 25 246 -2 246 -3 3 -29 c2 -16 -3 -45 -11 -65 -8
-20 -25 -63 -37 -96 -13 -33 -38 -92 -56 -130 -19 -39 -44 -100 -58 -135 -26
-71 -77 -191 -106 -255 -18 -38 -32 -70 -115 -270 -20 -49 -48 -115 -61 -146
-13 -31 -24 -62 -24 -69 0 -7 -9 -27 -19 -44 -10 -17 -56 -119 -101 -226 -274
-656 -291 -694 -328 -728 l-36 -33 -298 3 -298 3 -29 30 c-16 17 -43 64 -60
105 -18 41 -35 82 -40 90 -4 8 -30 67 -56 130 -98 236 -324 771 -386 915 -21
50 -77 182 -124 295 -48 113 -96 225 -107 250 -46 101 -81 183 -98 230 -36
105 -50 155 -46 167 4 10 65 13 288 13 241 0 287 -2 306 -16z"/>
<path d="M3872 7520 c-4 -3 -7 -179 -7 -392 l0 -388 2570 -2 c1414 -2 2574 0
2578 3 8 6 12 768 4 775 -6 6 -5138 10 -5145 4z m4982 -131 c14 -7 29 -24 35
-40 14 -40 14 -397 0 -437 -8 -24 -20 -34 -47 -42 -26 -8 -766 -10 -2418 -8
-2326 3 -2382 3 -2403 22 -20 18 -21 28 -21 246 0 204 2 228 18 242 9 9 26 18
37 21 11 2 1090 5 2397 6 1758 1 2384 -2 2402 -10z"/>
<path d="M6430 6113 l-2565 -3 0 -390 c0 -340 2 -390 15 -390 2025 -1 5134 1
5137 4 7 6 4 766 -2 776 -3 6 -9 9 -13 8 -4 -2 -1161 -4 -2572 -5z m2414 -133
c52 -19 58 -51 54 -282 -3 -207 -3 -210 -27 -229 -23 -19 -71 -19 -2433 -17
-2372 3 -2410 3 -2424 22 -11 16 -14 66 -14 246 0 248 1 252 60 263 52 9 4759
7 4784 -3z"/>
<path d="M3870 4703 c-1 -2 -1 -177 -1 -390 l-1 -388 2577 0 2576 0 0 385 c0
212 -1 387 -1 390 0 5 -5150 7 -5150 3z m5006 -144 c17 -19 19 -39 19 -246 0
-224 0 -225 -24 -244 -23 -19 -75 -19 -2431 -19 -2176 0 -2410 2 -2424 16 -14
13 -16 50 -16 245 0 216 1 230 20 249 20 20 33 20 2428 20 l2409 0 19 -21z"/>
</g>
</svg>
